<mxfile host="app.diagrams.net" modified="2024-05-01T06:19:02.970Z" agent="Mozilla/5.0 (Windows NT 10.0; Win64; x64) AppleWebKit/537.36 (KHTML, like Gecko) Chrome/124.0.0.0 Safari/537.36" etag="NMG2iOtpb2-YVOiim8g5" version="24.3.1" type="github">
  <diagram name="Page-1" id="hInzUNneLPHOLosXJN6D">
    <mxGraphModel dx="1105" dy="558" grid="1" gridSize="10" guides="1" tooltips="1" connect="1" arrows="1" fold="1" page="1" pageScale="1" pageWidth="827" pageHeight="1169" math="0" shadow="0">
      <root>
        <mxCell id="0" />
        <mxCell id="1" parent="0" />
        <mxCell id="cZKXpoZEI517EeOuTU6T-1" value="&lt;font style=&quot;font-size: 18px;&quot;&gt;Planning&lt;/font&gt;" style="text;html=1;align=center;verticalAlign=middle;resizable=0;points=[];autosize=1;strokeColor=none;fillColor=none;" vertex="1" parent="1">
          <mxGeometry x="300" width="90" height="40" as="geometry" />
        </mxCell>
        <mxCell id="cZKXpoZEI517EeOuTU6T-3" value="Exam Date: May 15" style="text;html=1;align=center;verticalAlign=middle;resizable=0;points=[];autosize=1;strokeColor=#82b366;fillColor=#d5e8d4;" vertex="1" parent="1">
          <mxGeometry x="284" y="40" width="130" height="30" as="geometry" />
        </mxCell>
        <mxCell id="cZKXpoZEI517EeOuTU6T-4" value="" style="shape=image;html=1;verticalAlign=top;verticalLabelPosition=bottom;labelBackgroundColor=#ffffff;imageAspect=0;aspect=fixed;image=https://cdn3.iconfinder.com/data/icons/flat-office-icons-1/140/Artboard_1-11-128.png" vertex="1" parent="1">
          <mxGeometry x="250" y="40" width="30" height="30" as="geometry" />
        </mxCell>
        <mxCell id="cZKXpoZEI517EeOuTU6T-5" value="" style="shape=image;html=1;verticalAlign=top;verticalLabelPosition=bottom;labelBackgroundColor=#ffffff;imageAspect=0;aspect=fixed;image=https://cdn4.iconfinder.com/data/icons/online-shop-7/128/calendar-event-planning-128.png" vertex="1" parent="1">
          <mxGeometry x="390" y="5" width="30" height="30" as="geometry" />
        </mxCell>
        <mxCell id="cZKXpoZEI517EeOuTU6T-8" value="" style="edgeStyle=orthogonalEdgeStyle;rounded=0;orthogonalLoop=1;jettySize=auto;html=1;" edge="1" parent="1" source="cZKXpoZEI517EeOuTU6T-6" target="cZKXpoZEI517EeOuTU6T-7">
          <mxGeometry relative="1" as="geometry" />
        </mxCell>
        <mxCell id="cZKXpoZEI517EeOuTU6T-6" value="&lt;font style=&quot;font-size: 15px;&quot;&gt;Week 1&lt;/font&gt;" style="text;html=1;align=center;verticalAlign=middle;resizable=0;points=[];autosize=1;strokeColor=none;fillColor=none;" vertex="1" parent="1">
          <mxGeometry x="145" y="128" width="70" height="30" as="geometry" />
        </mxCell>
        <mxCell id="cZKXpoZEI517EeOuTU6T-7" value="Authentication&lt;div&gt;Database Schema&lt;/div&gt;" style="shape=step;perimeter=stepPerimeter;whiteSpace=wrap;html=1;fixedSize=1;fillColor=#e1d5e7;strokeColor=#9673a6;" vertex="1" parent="1">
          <mxGeometry x="264" y="104.5" width="170" height="77" as="geometry" />
        </mxCell>
        <mxCell id="cZKXpoZEI517EeOuTU6T-19" value="&lt;font style=&quot;font-size: 14px;&quot;&gt;1.Create User&lt;/font&gt;&lt;div style=&quot;font-size: 14px;&quot;&gt;&lt;font style=&quot;font-size: 14px;&quot;&gt;2. Get User By Id&lt;br&gt;&lt;/font&gt;&lt;/div&gt;&lt;div style=&quot;font-size: 14px;&quot;&gt;&lt;font style=&quot;font-size: 14px;&quot;&gt;3.Get User By phone_numer&lt;/font&gt;&lt;/div&gt;&lt;div style=&quot;font-size: 14px;&quot;&gt;&lt;font style=&quot;font-size: 14px;&quot;&gt;4.Edit User&lt;/font&gt;&lt;/div&gt;&lt;div style=&quot;font-size: 14px;&quot;&gt;&lt;font style=&quot;font-size: 14px;&quot;&gt;5.Login User&lt;/font&gt;&lt;/div&gt;&lt;div style=&quot;font-size: 14px;&quot;&gt;&lt;font style=&quot;font-size: 14px;&quot;&gt;6.Delete User&lt;/font&gt;&lt;/div&gt;&lt;div style=&quot;font-size: 14px;&quot;&gt;&lt;font style=&quot;font-size: 14px;&quot;&gt;7.Get User Profile&lt;/font&gt;&lt;/div&gt;&lt;div style=&quot;font-size: 14px;&quot;&gt;&lt;font style=&quot;font-size: 14px;&quot;&gt;8.Edit Profile&lt;/font&gt;&lt;/div&gt;" style="rounded=1;whiteSpace=wrap;html=1;fillColor=#fff2cc;strokeColor=#d6b656;" vertex="1" parent="1">
          <mxGeometry x="567.29" y="380" width="265.43" height="170" as="geometry" />
        </mxCell>
        <mxCell id="cZKXpoZEI517EeOuTU6T-22" style="edgeStyle=orthogonalEdgeStyle;rounded=0;orthogonalLoop=1;jettySize=auto;html=1;" edge="1" parent="1" source="cZKXpoZEI517EeOuTU6T-21" target="cZKXpoZEI517EeOuTU6T-19">
          <mxGeometry relative="1" as="geometry" />
        </mxCell>
        <mxCell id="cZKXpoZEI517EeOuTU6T-21" value="&lt;font style=&quot;font-size: 18px;&quot;&gt;User&lt;/font&gt;" style="text;html=1;align=center;verticalAlign=middle;resizable=0;points=[];autosize=1;strokeColor=#9673a6;fillColor=#e1d5e7;" vertex="1" parent="1">
          <mxGeometry x="670" y="280" width="60" height="40" as="geometry" />
        </mxCell>
      </root>
    </mxGraphModel>
  </diagram>
</mxfile>
